<!-- Generated by IcoMoon.io -->
<svg xmlns="http://www.w3.org/2000/svg" aria-hidden="true" overflow="hidden">
    <title>close</title>
    <symbol id="close">
        <path
            d="M10 8.586l-7.071-7.071-1.414 1.414 7.071 7.071-7.071 7.071 1.414 1.414 7.071-7.071 7.071 7.071 1.414-1.414-7.071-7.071 7.071-7.071-1.414-1.414-7.071 7.071z">
        </path>
    </symbol>

    <symbol id="user">
        <path 
            d="M6 6a3 3 0 1 0 0-6 3 3 0 1 0 0 6Zm0 1.5c-2.002 0-6 1.005-6 3v.75c0 .412.338.75.75.75h10.5c.412 0 .75-.338.75-.75v-.75c0-1.995-3.998-3-6-3Z" />
    </symbol>

    <symbol id="email">
        <path 
            d="M14 0H2C1.175 0 .507.675.507 1.5l-.007 9c0 .825.675 1.5 1.5 1.5h12c.825 0 1.5-.675 1.5-1.5v-9C15.5.675 14.825 0 14 0Zm-.3 3.188L8.398 6.502a.759.759 0 0 1-.795 0L2.3 3.187a.637.637 0 1 1 .675-1.08L8 5.25l5.025-3.143a.637.637 0 1 1 .675 1.08Z" />
    </symbol>

    <symbol id="phone">
        <path 
            d="m11.996 9.123-1.838-.21a1.44 1.44 0 0 0-1.187.412l-1.332 1.332a10.888 10.888 0 0 1-4.769-4.77L4.21 4.55a1.44 1.44 0 0 0 .412-1.187l-.21-1.824a1.448 1.448 0 0 0-1.44-1.28H1.72C.902.257.222.937.272 1.754c.384 6.18 5.327 11.116 11.5 11.5.817.05 1.498-.63 1.498-1.448v-1.252a1.434 1.434 0 0 0-1.274-1.432Z" />
    </symbol>


</svg>